<mxfile host="app.diagrams.net" modified="2022-05-01T21:43:54.893Z" agent="5.0 (Windows NT 10.0; Win64; x64) AppleWebKit/537.36 (KHTML, like Gecko) Chrome/100.0.4896.127 Safari/537.36" etag="b53uyt1WujUNqmoPL3KB" version="17.5.0" type="github">
  <diagram id="fbPL-uRlpa-r3CLpJjyR" name="Page-1">
    <mxGraphModel dx="631" dy="739" grid="1" gridSize="10" guides="1" tooltips="1" connect="1" arrows="1" fold="1" page="1" pageScale="1" pageWidth="850" pageHeight="1100" math="0" shadow="0">
      <root>
        <mxCell id="0" />
        <mxCell id="1" parent="0" />
        <mxCell id="lSKJ1lbbKrrAW3oq8G_C-1" value="&lt;div style=&quot;text-align: left&quot;&gt;&lt;span style=&quot;font-size: 40px ; color: rgb(14 , 156 , 94)&quot;&gt;KNOTTING&lt;/span&gt;&lt;/div&gt;&lt;font style=&quot;font-size: 40px&quot; color=&quot;#0e9c5e&quot;&gt;&lt;div style=&quot;text-align: left&quot;&gt;&lt;span&gt;PACKING&lt;/span&gt;&lt;/div&gt;&lt;div style=&quot;text-align: left&quot;&gt;&lt;span&gt;FOLDING&lt;/span&gt;&lt;/div&gt;&lt;div style=&quot;text-align: left&quot;&gt;&lt;span&gt;...&lt;/span&gt;&lt;/div&gt;&lt;div style=&quot;text-align: left&quot;&gt;&lt;span&gt;GRAPH COMPRESSION&lt;/span&gt;&lt;/div&gt;&lt;/font&gt;" style="text;html=1;align=center;verticalAlign=middle;resizable=0;points=[];autosize=1;strokeColor=none;fillColor=none;" vertex="1" parent="1">
          <mxGeometry x="110" y="240" width="470" height="90" as="geometry" />
        </mxCell>
        <mxCell id="lSKJ1lbbKrrAW3oq8G_C-2" value="" style="endArrow=none;html=1;rounded=0;fontSize=40;fontColor=#0E9C5E;strokeWidth=2;strokeColor=#0E9C5E;" edge="1" parent="1">
          <mxGeometry width="50" height="50" relative="1" as="geometry">
            <mxPoint x="120" y="210" as="sourcePoint" />
            <mxPoint x="310" y="210" as="targetPoint" />
          </mxGeometry>
        </mxCell>
        <mxCell id="lSKJ1lbbKrrAW3oq8G_C-3" value="" style="endArrow=none;html=1;rounded=0;fontSize=40;fontColor=#0E9C5E;strokeWidth=2;strokeColor=#0E9C5E;" edge="1" parent="1">
          <mxGeometry width="50" height="50" relative="1" as="geometry">
            <mxPoint x="120" y="260" as="sourcePoint" />
            <mxPoint x="310" y="260" as="targetPoint" />
          </mxGeometry>
        </mxCell>
        <mxCell id="lSKJ1lbbKrrAW3oq8G_C-4" value="" style="endArrow=none;html=1;rounded=0;fontSize=40;fontColor=#0E9C5E;strokeWidth=2;strokeColor=#0E9C5E;" edge="1" parent="1">
          <mxGeometry width="50" height="50" relative="1" as="geometry">
            <mxPoint x="120" y="310" as="sourcePoint" />
            <mxPoint x="310" y="310" as="targetPoint" />
          </mxGeometry>
        </mxCell>
        <mxCell id="lSKJ1lbbKrrAW3oq8G_C-5" value="" style="endArrow=none;html=1;rounded=0;fontSize=40;fontColor=#0E9C5E;strokeWidth=2;strokeColor=#0E9C5E;" edge="1" parent="1">
          <mxGeometry width="50" height="50" relative="1" as="geometry">
            <mxPoint x="120" y="360" as="sourcePoint" />
            <mxPoint x="310" y="360" as="targetPoint" />
          </mxGeometry>
        </mxCell>
        <mxCell id="lSKJ1lbbKrrAW3oq8G_C-6" value="" style="endArrow=none;html=1;rounded=0;fontSize=40;fontColor=#0E9C5E;strokeWidth=2;strokeColor=#0E9C5E;" edge="1" parent="1">
          <mxGeometry width="50" height="50" relative="1" as="geometry">
            <mxPoint x="120" y="410" as="sourcePoint" />
            <mxPoint x="410" y="410" as="targetPoint" />
          </mxGeometry>
        </mxCell>
        <mxCell id="lSKJ1lbbKrrAW3oq8G_C-7" value="" style="shape=waypoint;sketch=0;fillStyle=solid;size=6;pointerEvents=1;points=[];fillColor=none;resizable=0;rotatable=0;perimeter=centerPerimeter;snapToPoint=1;fontSize=40;fontColor=#0E9C5E;strokeWidth=2;strokeColor=#0E9C5E;" vertex="1" parent="1">
          <mxGeometry x="385" y="190" width="40" height="40" as="geometry" />
        </mxCell>
        <mxCell id="lSKJ1lbbKrrAW3oq8G_C-8" value="&lt;font color=&quot;#0000ff&quot;&gt;PROBLEMS&lt;/font&gt;" style="text;html=1;align=center;verticalAlign=middle;resizable=0;points=[];autosize=1;strokeColor=none;fillColor=none;fontSize=40;fontColor=#0E9C5E;rotation=-90;" vertex="1" parent="1">
          <mxGeometry x="310" y="140" width="240" height="50" as="geometry" />
        </mxCell>
        <mxCell id="lSKJ1lbbKrrAW3oq8G_C-10" value="" style="endArrow=none;html=1;rounded=0;fontSize=40;fontColor=#0000FF;strokeColor=#0E9C5E;strokeWidth=2;" edge="1" parent="1" target="lSKJ1lbbKrrAW3oq8G_C-7">
          <mxGeometry width="50" height="50" relative="1" as="geometry">
            <mxPoint x="300" y="230" as="sourcePoint" />
            <mxPoint x="350" y="240" as="targetPoint" />
          </mxGeometry>
        </mxCell>
        <mxCell id="lSKJ1lbbKrrAW3oq8G_C-11" value="" style="endArrow=none;html=1;rounded=0;fontSize=40;fontColor=#0000FF;strokeColor=#0E9C5E;strokeWidth=2;" edge="1" parent="1" target="lSKJ1lbbKrrAW3oq8G_C-7">
          <mxGeometry width="50" height="50" relative="1" as="geometry">
            <mxPoint x="330" y="190" as="sourcePoint" />
            <mxPoint x="400" y="160" as="targetPoint" />
          </mxGeometry>
        </mxCell>
      </root>
    </mxGraphModel>
  </diagram>
</mxfile>
